<svg width="19" height="16" viewBox="0 0 19 16" fill="none" xmlns="http://www.w3.org/2000/svg">
  <path fill-rule="evenodd" clip-rule="evenodd" d="M14.2646 3.53307C14.3275 3.48501 14.3972 3.43153 14.4768 3.37042L14.2646 3.53307ZM14.4806 12.6059C14.482 12.607 14.4835 12.608 14.485 12.6091L14.4806 12.6059ZM12.9248 11.8639C13.5862 12.3034 13.7117 12.3891 14.1117 12.6799C12.6462 14.7635 10.3036 15.999 7.792 15.999C3.49576 15.999 -6.48071e-07 12.41 -2.72476e-07 7.99902C1.0312e-07 3.58803 3.49576 -0.000976595 7.79201 -0.00097621C10.2979 -0.000975985 12.6381 1.23058 14.1041 3.3074C13.9668 3.41231 13.8625 3.49074 13.7566 3.56673C13.5586 3.70884 13.3547 3.84243 12.918 4.12476C11.7187 2.45421 9.82174 1.46446 7.79201 1.46446C4.28231 1.46446 1.42733 4.39557 1.42733 7.99902C1.42733 11.6025 4.28231 14.5336 7.792 14.5337C9.82663 14.5337 11.7259 13.5404 12.9248 11.8639Z" fill="#BCCCD5"/>
  <path fill-rule="evenodd" clip-rule="evenodd" d="M16.1937 8.75263H8.7998V7.24728L16.1937 7.24728L14.5128 5.52148L15.5496 4.45703L19.0004 7.99996L15.5496 11.5429L14.5128 10.4784L16.1937 8.75263Z" fill="#BCCCD5"/>
</svg>
